<svg xmlns="http://www.w3.org/2000/svg" width="920" height="1060" viewBox="0 0 920 1060" role="img" aria-labelledby="title desc">
  <title id="title">Profissional de seguranca do trabalho FortixSeg</title>
  <desc id="desc">Ilustracao vetorial de um trabalhador com capacete, colete tecnico e tablet em ambiente industrial.</desc>
  <defs>
    <linearGradient id="bg" x1="170" y1="18" x2="760" y2="1030" gradientUnits="userSpaceOnUse">
      <stop offset="0" stop-color="#1b3528"/>
      <stop offset=".45" stop-color="#0a1410"/>
      <stop offset="1" stop-color="#020604"/>
    </linearGradient>
    <linearGradient id="green" x1="214" y1="166" x2="720" y2="894" gradientUnits="userSpaceOnUse">
      <stop offset="0" stop-color="#8de442"/>
      <stop offset=".5" stop-color="#2fa31f"/>
      <stop offset="1" stop-color="#0f5f14"/>
    </linearGradient>
    <linearGradient id="darkSuit" x1="322" y1="430" x2="590" y2="1012" gradientUnits="userSpaceOnUse">
      <stop offset="0" stop-color="#26362f"/>
      <stop offset=".48" stop-color="#101a15"/>
      <stop offset="1" stop-color="#050807"/>
    </linearGradient>
    <linearGradient id="skin" x1="358" y1="250" x2="548" y2="438" gradientUnits="userSpaceOnUse">
      <stop offset="0" stop-color="#d6a37d"/>
      <stop offset=".55" stop-color="#b87354"/>
      <stop offset="1" stop-color="#7c3f31"/>
    </linearGradient>
    <linearGradient id="tablet" x1="584" y1="586" x2="792" y2="820" gradientUnits="userSpaceOnUse">
      <stop offset="0" stop-color="#dce8df"/>
      <stop offset=".23" stop-color="#91a49b"/>
      <stop offset=".24" stop-color="#14201a"/>
      <stop offset="1" stop-color="#07100c"/>
    </linearGradient>
    <radialGradient id="glow" cx="50%" cy="43%" r="58%">
      <stop offset="0" stop-color="#79d13b" stop-opacity=".24"/>
      <stop offset=".72" stop-color="#79d13b" stop-opacity=".05"/>
      <stop offset="1" stop-color="#79d13b" stop-opacity="0"/>
    </radialGradient>
    <filter id="shadow" x="-20%" y="-10%" width="140%" height="130%">
      <feDropShadow dx="0" dy="34" stdDeviation="28" flood-color="#000000" flood-opacity=".48"/>
    </filter>
    <filter id="soft" x="-20%" y="-20%" width="140%" height="140%">
      <feGaussianBlur stdDeviation="18"/>
    </filter>
  </defs>

  <rect width="920" height="1060" fill="url(#bg)"/>
  <ellipse cx="498" cy="462" rx="420" ry="470" fill="url(#glow)"/>

  <g opacity=".34" stroke="#ffffff" stroke-width="2">
    <path d="M96 150h742M74 292h780M42 430h836M70 720h780M96 862h718"/>
    <path d="M144 88v816M296 40v910M452 22v952M608 38v924M764 84v820"/>
  </g>

  <g opacity=".48">
    <path d="M64 186h790v56H64z" fill="#08100c"/>
    <path d="M86 198h768" stroke="#79d13b" stroke-width="5" stroke-opacity=".42"/>
    <path d="M74 242 166 186M162 242l92-56M250 242l92-56M338 242l92-56M426 242l92-56M514 242l92-56M602 242l92-56M690 242l92-56M778 242l80-49" stroke="#e7a92f" stroke-width="9" stroke-opacity=".76"/>
  </g>

  <g opacity=".58" fill="none" stroke="#79d13b" stroke-width="4">
    <path d="M736 344h76v76h-76z"/>
    <path d="M756 420v86h46v84"/>
    <path d="M118 505h92v74h-92zM144 579v126"/>
  </g>

  <g filter="url(#shadow)">
    <ellipse cx="467" cy="1000" rx="270" ry="38" fill="#000" opacity=".42"/>

    <path d="M301 558c-64 31-98 90-124 171l-49 154 121 37 58-155 33-81Z" fill="#14221b"/>
    <path d="M624 559c74 37 112 92 143 179l51 142-119 40-61-154-41-78Z" fill="#17251e"/>

    <path d="M326 520c34-47 80-72 138-72 65 0 115 27 151 78l62 386c-59 38-133 58-218 58-78 0-149-17-211-52Z" fill="url(#darkSuit)"/>
    <path d="M340 538c47-38 86-55 126-55 42 0 86 19 133 58l36 338c-43 28-100 43-172 43-68 0-124-14-167-42Z" fill="#1b2a23"/>

    <path d="M364 520h64l-44 367h-72Z" fill="url(#green)"/>
    <path d="M500 520h65l66 365h-74Z" fill="url(#green)"/>
    <path d="M383 559h40l-33 288h-44Z" fill="#dcefc4" opacity=".9"/>
    <path d="M520 559h40l51 288h-45Z" fill="#dcefc4" opacity=".9"/>
    <path d="M356 737h229" stroke="#79d13b" stroke-width="18" stroke-linecap="round"/>
    <path d="M370 737h201" stroke="#e8f4d9" stroke-width="6" stroke-linecap="round" opacity=".82"/>

    <path d="M375 432c24 46 57 72 99 72 38 0 69-23 91-70l-9 99c-28 24-58 36-91 36-36 0-68-13-96-38Z" fill="url(#skin)"/>
    <path d="M368 262c-15 42-16 98 2 137 22 48 59 78 106 78 46 0 83-30 107-80 18-39 18-93 2-135-25-24-61-38-108-38-48 0-84 13-109 38Z" fill="url(#skin)"/>
    <path d="M356 326c-17-5-31 8-28 31 4 28 21 48 41 44Z" fill="#ad6b50"/>
    <path d="M596 326c18-6 31 7 28 30-4 29-21 50-42 45Z" fill="#9e5d48"/>
    <path d="M389 392c28 32 101 42 151 0-26 58-112 61-151 0Z" fill="#f2d2bb" opacity=".55"/>

    <path d="M362 244c23-58 66-92 116-92 52 0 96 34 121 93 14 34 14 65 14 65H347s0-33 15-66Z" fill="#0a0f0d"/>
    <path d="M331 262c23-88 75-132 146-132 74 0 128 45 154 132z" fill="url(#green)" stroke="#07100c" stroke-width="10" stroke-linejoin="round"/>
    <path d="M304 286c34-23 90-36 171-36 82 0 141 12 178 36v28H304z" fill="#8de442" stroke="#07100c" stroke-width="10" stroke-linejoin="round"/>
    <path d="M451 145h45v111h-45z" fill="#c9f392" opacity=".7"/>
    <path d="M343 304h265" stroke="#0f2419" stroke-width="12" stroke-linecap="round" opacity=".8"/>
    <path d="M377 321h92c9 0 16 7 16 16v18c0 9-7 16-16 16h-62c-17 0-30-13-30-30z" fill="#101a15" opacity=".86"/>
    <path d="M489 321h91v20c0 17-13 30-30 30h-61c-9 0-16-7-16-16v-18c0-9 7-16 16-16Z" fill="#101a15" opacity=".86"/>
    <path d="M465 344h20" stroke="#101a15" stroke-width="9" stroke-linecap="round"/>
    <path d="M394 334h58M506 334h54" stroke="#ffffff" stroke-width="5" stroke-linecap="round" opacity=".18"/>
    <path d="M451 392c15 7 31 7 48 0" stroke="#704030" stroke-width="7" stroke-linecap="round" opacity=".4"/>

    <path d="M223 746c42-12 80 12 91 54l31 121-113 34-42-146c-10-34 2-54 33-63Z" fill="#111d17"/>
    <path d="M688 753c-40-13-79 10-91 51l-34 118 111 36 45-144c11-34 1-52-31-61Z" fill="#111d17"/>

    <path d="M603 610c19-32 58-37 88-13l83 67c20 16 23 45 8 65-16 21-45 24-66 7l-92-73c-18-14-25-32-21-53Z" fill="#17251e"/>
    <path d="M614 640 740 760l-111 96-122-120Z" fill="url(#tablet)" stroke="#dce8df" stroke-width="8" stroke-linejoin="round"/>
    <path d="M646 692h76M656 727h54M665 762h32" stroke="#79d13b" stroke-width="8" stroke-linecap="round"/>
    <path d="M558 704c16-26 52-29 74-7 21 21 22 55 3 77-19 23-53 25-76 4-22-20-23-48-1-74Z" fill="url(#skin)"/>

    <path d="M262 613c-18-32-57-39-88-16l-72 55c-24 18-29 52-10 75 19 22 51 24 76 5l72-55c28-22 35-39 22-64Z" fill="#17251e"/>
    <path d="M92 728c18 26 55 29 78 7 22-21 22-56 2-78-20-23-55-24-79-3-22 21-23 49-1 74Z" fill="url(#skin)"/>

    <path d="M332 908h90v106h-118v-72c0-19 9-30 28-34Z" fill="#07100c"/>
    <path d="M509 908h90c19 4 28 15 28 34v72H509Z" fill="#07100c"/>
    <path d="M296 1002h141v36H279c0-17 6-29 17-36ZM493 1002h158c11 7 17 19 17 36H493Z" fill="#111827"/>
  </g>

  <g opacity=".72">
    <rect x="78" y="804" width="202" height="72" rx="10" fill="#07100c" stroke="#79d13b" stroke-opacity=".55" stroke-width="2"/>
    <path d="M101 840h42M101 858h102M166 840h68" stroke="#ffffff" stroke-opacity=".52" stroke-width="6" stroke-linecap="round"/>
    <circle cx="242" cy="838" r="14" fill="#79d13b"/>
  </g>

  <path d="M0 930c140 38 281 57 424 57 177 0 342-29 496-86v159H0Z" fill="#020604" opacity=".72"/>
</svg>
